<svg width="248" height="64" viewBox="0 0 248 64" fill="none" xmlns="http://www.w3.org/2000/svg">
<circle cx="32" cy="32" r="32" fill="#FF8577"/>
<path d="M52 32C52 35.3156 51.1757 38.5792 49.6013 41.4971C48.0268 44.4151 45.7517 46.8958 42.9805 48.7161C40.2093 50.5365 37.029 51.6393 33.7257 51.9254C30.4225 52.2115 27.1 51.6719 24.057 50.3551C21.0141 49.0383 18.3463 46.9857 16.2937 44.3819C14.241 41.7781 12.8679 38.7048 12.2978 35.4386C11.7278 32.1724 11.9787 28.8156 13.028 25.6705C14.0773 22.5253 15.8921 19.6903 18.3091 17.4206L27.0713 26.7514C26.2012 27.5685 25.5478 28.5891 25.1701 29.7214C24.7923 30.8536 24.702 32.062 24.9072 33.2379C25.1124 34.4137 25.6068 35.5201 26.3457 36.4575C27.0847 37.3948 28.0451 38.1338 29.1405 38.6078C30.236 39.0819 31.4321 39.2761 32.6213 39.1731C33.8104 39.0702 34.9553 38.6731 35.953 38.0178C36.9506 37.3625 37.7697 36.4694 38.3365 35.419C38.9033 34.3685 39.2 33.1936 39.2 32H52Z" fill="#5551FF"/>
<path d="M111.021 26.1568C109.938 17.1686 103.135 12 94.1283 12C83.848 12 76 19.2589 76 31.9905C76 44.6841 83.715 51.981 94.1283 51.981C104.105 51.981 110.128 45.3492 111.021 38.1853L102.698 38.1473C101.919 42.3088 98.6508 44.7031 94.2613 44.7031C88.3515 44.7031 84.342 40.3135 84.342 31.9905C84.342 23.8955 88.2945 19.2779 94.3183 19.2779C98.8219 19.2779 102.071 21.8812 102.698 26.1568H111.021Z" fill="#5551FF"/>
<path d="M115.744 51.4489H123.972V37.6532H129.977L137.35 51.4489H146.433L138.167 36.323C142.595 34.4228 145.046 30.5653 145.046 25.2447C145.046 17.5107 139.934 12.5321 131.098 12.5321H115.744V51.4489ZM123.972 31.0404V19.2589H129.521C134.272 19.2589 136.571 21.3682 136.571 25.2447C136.571 29.1021 134.272 31.0404 129.559 31.0404H123.972Z" fill="#5551FF"/>
<path d="M184.021 26.1568C182.938 17.1686 176.135 12 167.128 12C156.847 12 148.999 19.2589 148.999 31.9905C148.999 44.6841 156.714 51.981 167.128 51.981C177.104 51.981 183.128 45.3492 184.021 38.1853L175.698 38.1473C174.919 42.3088 171.65 44.7031 167.261 44.7031C161.351 44.7031 157.341 40.3135 157.341 31.9905C157.341 23.8955 161.294 19.2779 167.318 19.2779C171.821 19.2779 175.071 21.8812 175.698 26.1568H184.021Z" fill="#5551FF"/>
<path d="M188.744 51.4489H213.656V44.6651H196.972V12.5321H188.744V51.4489Z" fill="#5551FF"/>
<path d="M239.039 23.7245H246.925C246.811 16.7886 241.111 12 232.445 12C223.913 12 217.662 16.7126 217.7 23.7815C217.681 29.5202 221.728 32.8076 228.303 34.3848L232.54 35.4489C236.778 36.4751 239.134 37.6912 239.153 40.3135C239.134 43.1639 236.436 45.1021 232.255 45.1021C227.98 45.1021 224.901 43.1259 224.635 39.2304H216.673C216.882 47.6485 222.906 52 232.35 52C241.852 52 247.438 47.4584 247.457 40.3325C247.438 33.8527 242.555 30.4133 235.79 28.8931L232.293 28.057C228.911 27.2779 226.08 26.0238 226.137 23.2304C226.137 20.7221 228.36 18.8789 232.388 18.8789C236.322 18.8789 238.735 20.6651 239.039 23.7245Z" fill="#5551FF"/>
</svg>
