<svg width="64" height="64" viewBox="0 0 64 64" fill="none" xmlns="http://www.w3.org/2000/svg">
<circle cx="32" cy="32" r="32" fill="#FF8577"/>
<path d="M52 32C52 35.3156 51.1757 38.5792 49.6013 41.4971C48.0268 44.4151 45.7517 46.8958 42.9805 48.7161C40.2093 50.5365 37.029 51.6393 33.7257 51.9254C30.4225 52.2115 27.1 51.6719 24.057 50.3551C21.0141 49.0383 18.3463 46.9857 16.2937 44.3819C14.241 41.7781 12.8679 38.7048 12.2978 35.4386C11.7278 32.1724 11.9787 28.8156 13.028 25.6705C14.0773 22.5253 15.8921 19.6903 18.3091 17.4206L27.0713 26.7514C26.2012 27.5685 25.5478 28.5891 25.1701 29.7214C24.7923 30.8536 24.702 32.062 24.9072 33.2379C25.1124 34.4137 25.6068 35.5201 26.3457 36.4575C27.0847 37.3948 28.0451 38.1338 29.1405 38.6078C30.236 39.0819 31.4321 39.2761 32.6213 39.1731C33.8104 39.0702 34.9553 38.6731 35.953 38.0178C36.9506 37.3625 37.7697 36.4694 38.3365 35.419C38.9033 34.3685 39.2 33.1936 39.2 32H52Z" fill="#5551FF"/>
</svg>
