<svg width="172" height="116" viewBox="0 0 172 116" fill="none" xmlns="http://www.w3.org/2000/svg">
<circle cx="86" cy="32" r="32" fill="#FF8577"/>
<path d="M106 32C106 35.3156 105.176 38.5792 103.601 41.4971C102.027 44.4151 99.7517 46.8958 96.9805 48.7161C94.2093 50.5365 91.029 51.6393 87.7257 51.9254C84.4225 52.2115 81.1 51.6719 78.057 50.3551C75.0141 49.0383 72.3463 46.9857 70.2937 44.3819C68.241 41.7781 66.8679 38.7048 66.2978 35.4386C65.7278 32.1724 65.9787 28.8156 67.028 25.6705C68.0773 22.5253 69.8921 19.6903 72.3091 17.4206L81.0713 26.7514C80.2012 27.5685 79.5478 28.5891 79.1701 29.7214C78.7923 30.8536 78.702 32.062 78.9072 33.2379C79.1124 34.4137 79.6068 35.5201 80.3457 36.4575C81.0847 37.3948 82.0451 38.1338 83.1405 38.6078C84.236 39.0819 85.4321 39.2761 86.6213 39.1731C87.8104 39.0702 88.9553 38.6731 89.953 38.0178C90.9506 37.3625 91.7697 36.4694 92.3365 35.419C92.9033 34.3685 93.2 33.1936 93.2 32H106Z" fill="#5551FF"/>
<path d="M35.0214 90.1568C33.9382 81.1686 27.1354 76 18.1283 76C7.84798 76 0 83.2589 0 95.9905C0 108.684 7.71497 115.981 18.1283 115.981C28.1045 115.981 34.1283 109.349 35.0214 102.185L26.6983 102.147C25.9192 106.309 22.6508 108.703 18.2613 108.703C12.3515 108.703 8.34204 104.314 8.34204 95.9905C8.34204 87.8955 12.2945 83.2779 18.3183 83.2779C22.8219 83.2779 26.0713 85.8812 26.6983 90.1568H35.0214Z" fill="#5551FF"/>
<path d="M39.7444 115.449H47.9724V101.653H53.9772L61.3501 115.449H70.4332L62.1672 100.323C66.5947 98.4228 69.046 94.5653 69.046 89.2447C69.046 81.5107 63.9344 76.5321 55.0983 76.5321H39.7444V115.449ZM47.9724 95.0404V83.2589H53.5211C58.2717 83.2589 60.571 85.3682 60.571 89.2447C60.571 93.1021 58.2717 95.0404 53.5591 95.0404H47.9724Z" fill="#5551FF"/>
<path d="M108.021 90.1568C106.938 81.1686 100.135 76 91.1277 76C80.8474 76 72.9994 83.2589 72.9994 95.9905C72.9994 108.684 80.7144 115.981 91.1277 115.981C101.104 115.981 107.128 109.349 108.021 102.185L99.6978 102.147C98.9187 106.309 95.6503 108.703 91.2607 108.703C85.351 108.703 81.3415 104.314 81.3415 95.9905C81.3415 87.8955 85.294 83.2779 91.3177 83.2779C95.8213 83.2779 99.0707 85.8812 99.6978 90.1568H108.021Z" fill="#5551FF"/>
<path d="M112.744 115.449H137.656V108.665H120.972V76.5321H112.744V115.449Z" fill="#5551FF"/>
<path d="M163.039 87.7245H170.925C170.811 80.7886 165.111 76 156.445 76C147.913 76 141.662 80.7126 141.7 87.7815C141.681 93.5202 145.728 96.8076 152.303 98.3848L156.54 99.4489C160.778 100.475 163.134 101.691 163.153 104.314C163.134 107.164 160.436 109.102 156.255 109.102C151.98 109.102 148.901 107.126 148.635 103.23H140.673C140.882 111.648 146.906 116 156.35 116C165.852 116 171.438 111.458 171.457 104.333C171.438 97.8527 166.555 94.4133 159.79 92.8931L156.293 92.057C152.911 91.2779 150.08 90.0238 150.137 87.2304C150.137 84.7221 152.36 82.8789 156.388 82.8789C160.322 82.8789 162.735 84.6651 163.039 87.7245Z" fill="#5551FF"/>
</svg>
